<svg width="400" height="50" viewBox="0 0 400 50" fill="none" xmlns="http://www.w3.org/2000/svg">
<g clip-path="url(#clip0_4414_352)">
<path fill-rule="evenodd" clip-rule="evenodd" d="M258.839 8.9891C260.084 8.9891 261.148 8.54915 262.031 7.67423C262.914 6.79432 263.351 5.73443 263.351 4.49455C263.351 3.25467 262.904 2.19478 262.031 1.31487C261.148 0.434957 260.084 0 258.839 0C257.595 0 256.531 0.444956 255.648 1.31487C254.764 2.19478 254.328 3.25467 254.328 4.49455C254.328 5.73443 254.769 6.79432 255.648 7.67423C256.531 8.55414 257.595 8.9891 258.839 8.9891ZM230.088 39.0561C232.703 39.0561 234.786 38.6261 236.331 37.7612C237.882 36.9013 239.212 35.6514 240.341 34.0166H242.258V38.5561H250.644V30.382H246.544V11.3089H238.158V25.8824C238.158 27.7272 237.636 29.1471 236.607 30.132C235.574 31.1169 234.068 31.6068 232.096 31.6068C230.124 31.6068 228.804 31.1619 227.88 30.267C226.952 29.3771 226.49 28.0022 226.49 26.1524V11.3039H218.104V27.7922C218.104 31.2719 219.123 34.0216 221.156 36.0364C223.193 38.0462 226.174 39.0561 230.088 39.0561ZM254.639 11.3089H263.025V38.5561H254.639V11.3089ZM276.419 1.78482H268.033V38.5561H276.419V1.78482ZM301.206 14.8135V1.78482H309.592V30.402H313.692V38.5761H305.306V34.0366H303.394C302.425 35.6414 301.11 36.8863 299.454 37.7812C297.798 38.6761 295.816 39.1211 293.507 39.1211C290.652 39.1211 288.243 38.5211 286.281 37.3263C284.318 36.1314 282.833 34.4666 281.834 32.3318C280.836 30.197 280.334 27.7722 280.334 24.9525C280.334 22.1328 280.821 19.658 281.789 17.5232C282.763 15.3835 284.188 13.7286 286.055 12.5487C287.922 11.3689 290.16 10.7789 292.775 10.7789C294.717 10.7789 296.388 11.1339 297.788 11.8438C299.188 12.5487 300.267 13.5436 301.025 14.8135H301.206ZM299.565 30.272C300.654 29.2221 301.201 27.7772 301.201 25.9324V23.9426C301.201 22.0878 300.659 20.6479 299.565 19.603C298.476 18.5581 296.98 18.0332 295.098 18.0332C292.945 18.0332 291.334 18.6581 290.29 19.898C289.242 21.1379 288.715 22.8177 288.715 24.9375C288.715 27.0573 289.242 28.7371 290.29 29.977C291.339 31.2269 292.94 31.8418 295.098 31.8418C296.98 31.8418 298.471 31.3169 299.565 30.272ZM326.519 11.3089H318.133V38.5561H326.519V11.3089ZM325.515 7.67423C324.632 8.54915 323.568 8.9891 322.324 8.9891C321.079 8.9891 320.015 8.55414 319.132 7.67423C318.254 6.79432 317.812 5.73443 317.812 4.49455C317.812 3.25467 318.249 2.19478 319.132 1.31487C320.015 0.444956 321.079 0 322.324 0C323.568 0 324.632 0.434957 325.515 1.31487C326.389 2.19478 326.835 3.25467 326.835 4.49455C326.835 5.73443 326.399 6.79432 325.515 7.67423ZM334.167 38.5611H342.548V23.9876C342.548 22.1128 343.04 20.6879 344.029 19.718C345.012 18.7531 346.468 18.2682 348.385 18.2682C350.302 18.2682 351.747 18.7581 352.741 19.718C353.724 20.6829 354.221 22.1078 354.221 23.9876V38.5611H362.607V22.3478C362.607 18.8331 361.563 16.0334 359.486 13.9486C357.403 11.8588 354.422 10.8139 350.528 10.8139C348.038 10.8139 345.991 11.2589 344.4 12.1538C342.804 13.0487 341.459 14.2786 340.365 15.8584H338.448V11.3189H330.062V19.4931H334.162V38.5611H334.167ZM380.96 43.4607C383.178 43.4607 384.874 42.9607 386.044 41.9658C387.198 40.9659 387.79 39.541 387.79 37.7012V34.2916H387.564C386.706 35.7114 385.592 36.7813 384.212 37.4912C382.832 38.2012 381.156 38.5561 379.178 38.5561C376.629 38.5561 374.401 37.9912 372.499 36.8563C370.597 35.7264 369.121 34.1066 368.077 32.0218C367.028 29.937 366.501 27.4773 366.501 24.6625C366.501 20.428 367.676 17.0583 370.035 14.5385C372.388 12.0288 375.645 10.7689 379.811 10.7689C382.119 10.7689 384.101 11.2189 385.758 12.1088C387.414 12.9987 388.723 14.2536 389.697 15.8534H391.614V11.3139H400V19.4881H395.9V37.6962C395.9 41.6258 394.635 44.6655 392.116 46.8003C389.597 48.9351 385.978 50 381.271 50C377.05 50 373.623 49.1651 370.998 47.4803C368.373 45.8004 366.813 43.4607 366.326 40.461H375.168C375.871 42.4658 377.798 43.4607 380.96 43.4607ZM385.893 29.702C386.987 28.6421 387.529 27.1723 387.529 25.2975H387.534H387.539V23.9326C387.539 22.0778 386.987 20.6379 385.878 19.593C384.764 18.5481 383.324 18.0232 381.291 18.0232C379.259 18.0232 377.683 18.6031 376.574 19.768C375.47 20.9379 374.913 22.5727 374.913 24.6975C374.913 26.8223 375.465 28.4472 376.574 29.582C377.683 30.7119 379.314 31.2819 381.291 31.2819C383.268 31.2819 384.799 30.7569 385.893 29.697V29.702ZM13.1686 26.9223C11.7282 25.2175 11.0006 22.8977 11.0006 20.023C11.0006 17.1483 11.7282 14.8285 13.1686 13.1237C14.6289 11.3939 16.8672 10.5189 19.8281 10.5189C22.789 10.5189 25.0273 11.3939 26.4877 13.1237C27.7423 14.6085 28.4599 16.5633 28.6205 18.9481C28.6607 19.553 29.1625 20.023 29.7698 20.023H38.6023C39.2648 20.023 39.7968 19.4681 39.7566 18.8081C39.3903 12.8337 36.2587 9.75402 31.4911 9.75402C31.4911 4.83452 26.844 1.47985 19.8984 1.47985C12.9528 1.47985 8.31065 4.82952 8.31065 9.75402C3.21686 9.75402 0 13.2487 0 20.023C0 26.7973 3.21686 30.292 8.30563 30.292C8.30563 35.1965 12.9227 38.5411 19.8281 38.5611H33.092C33.5838 38.5611 33.9853 38.1662 33.9853 37.6762V30.417C33.9853 29.927 33.5889 29.527 33.092 29.527H19.4166C16.6614 29.4421 14.5637 28.5671 13.1736 26.9223H13.1686ZM210.878 20.8329C211.906 21.7178 212.704 22.7727 213.246 23.9826C213.788 25.2025 214.064 26.5473 214.064 28.0322C214.064 30.117 213.547 31.9518 212.514 33.5266C211.48 35.1065 210.04 36.3414 208.203 37.2313C206.361 38.1262 204.218 38.5711 201.754 38.5711H181.61V9.21408H177.51V1.78482H200.936C203.184 1.78482 205.146 2.17978 206.838 2.9647C208.519 3.74963 209.844 4.84951 210.802 6.25437C211.756 7.66923 212.238 9.29407 212.238 11.1389C212.238 12.8887 211.796 14.4086 210.913 15.6984C210.029 16.9833 208.765 17.9682 207.129 18.6681V18.8481C208.584 19.2731 209.834 19.928 210.868 20.8229L210.878 20.8329ZM199.696 9.21408H190.171V16.1084H199.696C201.006 16.1084 201.99 15.8134 202.662 15.2235C203.325 14.6335 203.661 13.8036 203.661 12.6587C203.661 11.5138 203.33 10.6489 202.662 10.074C201.99 9.50405 201.006 9.21408 199.696 9.21408ZM200.294 31.1069C202 31.1069 203.285 30.7469 204.168 30.017C205.041 29.2921 205.488 28.2522 205.488 26.9273C205.488 25.6024 205.051 24.5875 204.168 23.8876C203.285 23.1877 202.01 22.8427 200.339 22.8427H190.176V31.1069H200.294ZM95.0656 24.3826L91.9691 19.4381L90.6493 13.7636C90.5589 13.3787 90.2578 13.0787 89.8714 12.9887L84.1754 11.6738L79.2121 8.58914C78.8759 8.37916 78.4493 8.37916 78.113 8.58914L73.1497 11.6738L67.4537 12.9887C67.0673 13.0787 66.7662 13.3787 66.6759 13.7636L65.356 19.4381L62.2596 24.3826C62.0488 24.7175 62.0488 25.1425 62.2596 25.4775L65.356 30.422L66.6759 36.0964C66.7662 36.4813 67.0673 36.7813 67.4537 36.8713L73.1497 38.1862L78.113 41.2709C78.4493 41.4809 78.8759 41.4809 79.2121 41.2709L84.1754 38.1862L89.8714 36.8713C90.2578 36.7813 90.5589 36.4813 90.6493 36.0964L91.9691 30.422L95.0656 25.4775C95.2763 25.1425 95.2763 24.7175 95.0656 24.3826ZM83.4728 29.972C82.4239 31.2119 80.823 31.8318 78.6651 31.8318C76.5071 31.8318 74.9012 31.2119 73.8574 29.972C72.8085 28.7321 72.2866 27.0523 72.2866 24.9325C72.2866 22.8127 72.8085 21.1329 73.8574 19.893C74.9062 18.6531 76.5071 18.0332 78.6651 18.0332C80.823 18.0332 82.429 18.6531 83.4728 19.893C84.5217 21.1329 85.0436 22.8177 85.0436 24.9325C85.0436 27.0473 84.5217 28.7321 83.4728 29.972ZM164.783 2.44476V10.274C164.783 10.6389 164.487 10.9339 164.12 10.9339H153.205C151.619 10.9339 150.339 12.2138 150.339 13.7886V17.7382C150.339 17.8932 150.214 18.0232 150.053 18.0232H147.614C145.667 18.0232 144.086 19.598 144.086 21.5378V28.1272C144.086 30.067 145.667 31.6418 147.614 31.6418H150.053C150.209 31.6418 150.339 31.7668 150.339 31.9268V35.7014C150.339 37.2813 151.624 38.5561 153.205 38.5561H172.877C173.244 38.5561 173.54 38.2612 173.54 37.8962V2.44476C173.54 2.07979 173.244 1.78482 172.877 1.78482H165.45C165.084 1.78482 164.788 2.07979 164.788 2.44476H164.783ZM166.288 25.2275C166.288 31.0319 162.549 31.6518 160.386 31.6518C158.223 31.6518 156.623 31.0319 155.579 29.787C154.53 28.5471 154.008 26.8673 154.008 24.7475C154.008 22.6277 154.53 20.9479 155.579 19.708C156.628 18.4682 158.228 17.8482 160.386 17.8482C162.544 17.8482 166.288 18.4632 166.288 24.2726V25.2275ZM131.55 11.9338C131.55 11.3839 132.002 10.9339 132.554 10.9339H138.952C139.504 10.9339 139.956 11.3839 139.956 11.9338V33.1617C139.956 33.5516 139.735 33.9016 139.384 34.0666L127.856 39.546C127.585 39.676 127.264 39.676 126.993 39.546L119.516 36.0014C119.245 35.8714 118.924 35.8714 118.653 36.0014L111.175 39.546C110.904 39.676 110.583 39.676 110.312 39.546L98.7843 34.0666C98.433 33.8966 98.2122 33.5466 98.2122 33.1617V11.9338C98.2122 11.3839 98.6638 10.9339 99.2159 10.9339H105.594C106.146 10.9339 106.598 11.3839 106.598 11.9338V26.7723C106.598 28.1522 106.934 29.2421 107.617 30.047C108.294 30.8569 109.338 31.2569 110.738 31.2569C112.139 31.2569 113.177 30.8569 113.86 30.047C114.537 29.2421 114.879 28.1472 114.879 26.7723V11.9338C114.879 11.3839 115.33 10.9339 115.882 10.9339H122.261C122.813 10.9339 123.265 11.3839 123.265 11.9338V26.7723C123.265 28.1522 123.601 29.2421 124.283 30.047C124.966 30.8569 126.01 31.2569 127.41 31.2569C128.81 31.2569 129.849 30.8569 130.531 30.047C131.209 29.2421 131.55 28.1472 131.55 26.7723V11.9338Z" fill="#0B043F"/>
<path fill-rule="evenodd" clip-rule="evenodd" d="M62.2295 10.9438H56.9801C54.1547 10.9438 51.791 12.9087 51.1838 15.5384C51.1838 15.5384 51.1838 15.6084 51.1035 15.6084C51.0232 15.6084 51.0282 15.5384 51.0282 15.5384V11.7388C50.9328 11.2888 50.5263 10.9438 50.0446 10.9438H44.1177C43.5657 10.9438 43.114 11.3938 43.114 11.9437V37.5662C43.114 38.1161 43.5657 38.5661 44.1177 38.5661H50.0446C50.5966 38.5661 51.0483 38.1161 51.0483 37.5662V20.1629H57.0655C60.3526 20.1629 63.0174 17.5082 63.0174 14.2335V11.7338C63.0174 11.2988 62.6611 10.9438 62.2245 10.9438H62.2295Z" fill="#0B043F"/>
</g>
<defs>
<clipPath id="clip0_4414_352">
<rect width="400" height="50" fill="white"/>
</clipPath>
</defs>
</svg>
